PathFileType	4	(X/Y/Z)	pose_F01_0-96.trc
DataRate	CameraRate	NumFrames	NumMarkers	Units	OrigDataRate	OrigDataStartFrame	OrigNumFrames
30	30	8	21	m	30	84	96
Frame#	Time	CHip			RHip			RKnee			RAnkle			RBigToe			RSmallToe			RHeel			LHip			LKnee			LAnkle			LBigToe			LSmallToe			LHeel			Neck			Nose			RShoulder			RElbow			RWrist			LShoulder			LElbow			LWrist			
		X1	Y1	Z1	X2	Y2	Z2	X3	Y3	Z3	X4	Y4	Z4	X5	Y5	Z5	X6	Y6	Z6	X7	Y7	Z7	X8	Y8	Z8	X9	Y9	Z9	X10	Y10	Z10	X11	Y11	Z11	X12	Y12	Z12	X13	Y13	Z13	X14	Y14	Z14	X15	Y15	Z15	X16	Y16	Z16	X17	Y17	Z17	X18	Y18	Z18	X19	Y19	Z19	X20	Y20	Z20	X21	Y21	Z21	
84	2.8	-0.19202122426808105	1.8220232601511936	-0.5191764814237373	-0.20459122010591257	1.8205164913790017	-0.46933127065852076	-0.19131128389187904	1.693019458960099	-0.45902860519852773													-0.1784143358194792	1.8236638346068672	-0.5773847101749533	-0.17020747060020053	1.6919044018972471	-0.5447441530897084	-0.16840302505279298	1.5659204990265994	-0.5146205232057645	-0.21014508997582432	1.5348197281365177	-0.5418188263214647	-0.19826929523740733	1.5402669197490149	-0.5541759854245938	-0.16385070897199708	1.5580897274941568	-0.5140495576024259	-1.815649360682516	1.8918318949489363	1.290076102586081	-0.19811416595399955	2.0466157787284076	-0.5735923257897518	-0.1962358863011753	1.9765308341956414	-0.46056031446493584	-0.20962730711338903	1.8910091566047587	-0.43272006174158756	-0.2301598808867734	1.8171453965932702	-0.43463867753264773	-0.149113689662224	1.982151430204323	-0.6188097454729946	-0.13795374555702447	1.9096316736061638	-0.6528010206180642	-0.193866809369907	1.8654212754377266	-0.6417970289714531
85	2.8333333333333335	-0.19169222818643106	1.8245157511304522	-0.519586677471028	-0.20351523169301639	1.821686568575017	-0.466423762328405	-0.19124707010290223	1.6955229737797126	-0.4593739953514945													-0.1791987004952027	1.8262014622292233	-0.572508403673105	-0.1731770282930545	1.694479376728899	-0.5461634104553725	-0.16837393425141087	1.5655300108552834	-0.5145409828950469	-0.21318623025803116	1.5346867603397703	-0.5429827002860647	-0.20043470068232122	1.537814580101345	-0.5518546592859817	-0.1641026017882441	1.5566535406800024	-0.5133752749408369	-1.8062687745456436	1.891700118547859	1.2728561383824757	-0.2001591667279521	2.04527766295024	-0.5714651677692978	-0.19807822094598249	1.9751507913655308	-0.4579174890924111	-0.2096333561106478	1.8909686929065959	-0.43267606880945947	-0.2300213404857305	1.8154508647208616	-0.43461052782559595	-0.14915130483105027	1.982239210361551	-0.618910718252853	-0.13799206615800952	1.9096029584145404	-0.6527262164067931	-0.193973523221548	1.8667655617779155	-0.6420897246854144
86	2.8666666666666667	-0.19226824163745304	1.8247435825300689	-0.5194331370488092	-0.2037678298878823	1.8242941252587581	-0.4667018062804035	-0.19177975404928693	1.6989979854438368	-0.45922074244270106													-0.17866434822681357	1.8264374010271123	-0.5776951475330868	-0.17364871103280136	1.6951658435982038	-0.5454810492371219	-0.17067575587034226	1.5642301626964659	-0.5117419511645054	-0.21309392011774222	1.5343037058863547	-0.542967394175668	-0.20055044205800956	1.5388384305417133	-0.551551384097741	-0.16450702360619118	1.5557276677617533	-0.5127153071388129	-1.806443020470244	1.8917250488462396	1.273160872710582	-0.2002212246652583	2.0465450391799216	-0.5718322175801457	-0.19710439814024036	1.9750159241130805	-0.4547597412409807	-0.21055713542183688	1.889811577495315	-0.42697254255709455	-0.2307156082214065	1.8203645744602128	-0.434671296580027	-0.14921897098825712	1.9834593567392471	-0.6193121199638985	-0.13790754332569308	1.9122436901796633	-0.6531242269967423	-0.1936057460396684	1.8751293101562936	-0.6517922556529654
87	2.9	-0.19211668074941535	1.8288881074235857	-0.5200680875676429	-0.2056331570856938	1.8271524455672845	-0.46494489313045345	-0.19079558061744903	1.6968735442415033	-0.45543260151904597													-0.18144567650350407	1.8307119952887418	-0.5794051130131402	-0.17255151961306464	1.6953808065735114	-0.551038830151904	-0.16840384171509726	1.5655957525317097	-0.5145131255055035	-0.21115210693049896	1.5348539391684133	-0.5451980621201985	-0.19839123975971254	1.5407143825247416	-0.5543478417880932	-0.16612463501454725	1.5564074253518576	-0.5111393480701137	-1.7969423265142364	1.8916352002892498	1.2557077628441926	-0.19933978403393474	2.045032495908399	-0.5683437625933807	-0.19711707343899879	1.9751525420364073	-0.4545225160820272	-0.20547602313138238	1.8904865573384089	-0.410526744650587	-0.23213253863896832	1.8279080912460337	-0.43028500615655074	-0.15298307157888053	1.9840710157473007	-0.6232197327267248	-0.1396301099931975	1.912420970709337	-0.6594625229069325	-0.19715200525090654	1.8780283159393183	-0.6531561475590737
88	2.933333333333333	-0.19172051238073567	1.827345882970297	-0.5200058689954666	-0.20521182661746584	1.825475416836415	-0.464791405234909	-0.18927854820380643	1.7010307165776928	-0.4532682014939906													-0.18284075557840587	1.829255234189104	-0.5857447046481746	-0.17367622177899283	1.6977790332736509	-0.5457515276684693	-0.16876089463990399	1.567633330756622	-0.5142711323177638	-0.2102190837289399	1.535438828276701	-0.5419921612447515	-0.19835658511947382	1.5410024309126542	-0.5544014875771938	-0.16633398229275537	1.557758346989819	-0.5109057254514656	-0.1781078726550017	1.9793717710653664	-0.5365424547574558	-0.20120247463604846	2.046267602565518	-0.5658786844012598	-0.19515616113504541	1.9749617563704014	-0.44808519564612936	-0.2044801402520977	1.8914570569970632	-0.4073803630718153	-0.23667462499879593	1.8311481026927485	-0.42633219760377195	-0.15669934922929668	1.9829195030615796	-0.6269149866331836	-0.14269583078581644	1.9128571154506986	-0.6721937353393229	-0.19565249607332225	1.8900660593419558	-0.6608071963286346
89	2.966666666666667	-0.19356949113251445	1.8255142606354864	-0.5174729722248548	-0.2050890327298517	1.8240491813574147	-0.4643890956437811	-0.18746758394776053	1.7002362619043085	-0.446166064491053													-0.18394143864397555	1.8279202061655517	-0.5800235505837497	-0.17448787469905158	1.6982852362616165	-0.540685592196956	-0.17077212689136914	1.567494649990131	-0.5120540434513142	-0.2098616864612748	1.5335002666178756	-0.5421878597140329	-0.19800747114970546	1.5390253046404418	-0.5546319992918388	-0.1663378489218461	1.557556767200535	-0.5108132244542122	-0.17714677141839894	1.9791315150897673	-0.5332987538888762	-0.20042873986503187	2.0450235825889798	-0.5628087493162305	-0.19130047221974666	1.9734929837623518	-0.44382744235247945	-0.20151705214502588	1.896135159156414	-0.407057585997449	-0.2487339360586091	1.8421953658348202	-0.4414446636520722	-0.15871736987011956	1.9841654820878214	-0.6245957263399068	-0.14661042201911872	1.9140103672646565	-0.6763625684954521	-0.21222258245939268	1.902019481526196	-0.6439842701326655
90	3.0	-0.19355797450163434	1.8230335184038644	-0.5169405144973563	-0.2022018275338653	1.8220400207970073	-0.46286768800451106	-0.18634121348431992	1.6964431865196492	-0.4423977266081725													-0.18234022074304046	1.8265019637963542	-0.5732672912244225	-0.17264110346026487	1.6967977109154222	-0.5424940688252923	-0.17076916379583004	1.5675824927507573	-0.5120934331709734	-0.21221788933154181	1.5349779926907046	-0.5396830582497626	-0.2003532443074463	1.5405290507722635	-0.552129490708718	-0.1664066291512537	1.5581858921517484	-0.5108914149971399	-0.17427274549393817	1.978881272272341	-0.5323633738422513	-0.20345156883294513	2.043621994781177	-0.5547247998668179	-0.18642415332085885	1.9734742520697708	-0.4451812055266052	-0.19746398495102702	1.8949278690530196	-0.41114617069521514	-0.2516110579341727	1.85961318261768	-0.42796351832126756	-0.1600771430016773	1.985167810548774	-0.6194312465449222	-0.1497830091959438	1.9156225917177208	-0.6774331320917595	-0.21797225520672237	1.9160984145315951	-0.6389184742408079
91	3.033333333333333	-0.1938542073486798	1.8229548846295585	-0.51677596814818	-0.20137009086969349	1.8206418015699686	-0.4594975463719044	-0.18460229718259413	1.6953929214008878	-0.4442640748749981													-0.18368041055517997	1.8248782549434892	-0.5675748129940956	-0.17396275097681424	1.6936806345045576	-0.5449255259021845	-0.1694924495027316	1.5664517582577495	-0.5177292947098417	-0.21203252094625313	1.533669939274144	-0.5400242440379893	-0.20015343565877722	1.5390177554036215	-0.5524462184802853	-0.1642427119570423	1.5571515972910206	-0.5133897900695112	-0.17420401414559214	1.9790280794999424	-0.5324393719083563	-0.20169020590363892	2.0432174103832983	-0.5483757940116095	-0.18255298589044058	1.973630217664565	-0.4495248433560721	-0.1886591855572899	1.8960149918209035	-0.4169868619664119	-0.2532331700633703	1.8792547703513731	-0.4377964238386041	-0.1630303027998602	1.9855628608312688	-0.62024361161677	-0.15506089435718892	1.9171584173333998	-0.6763210647932076	-0.21812614225475505	1.9225017089760783	-0.6400188377390924
